# xmcd CD database file
#
# Track frame offsets:
#	150
#	17445
#	40408
#	55044
#	89475
#	115914
#	135356
#	154707
#
# Disc length: 2434 seconds
#
# Revision: 0
# Processed by: cddbd v1.4PL0 Copyright (c) Steve Scherf et al.
# Submitted via: CDex 1.50
#
DISCID=5a098008
DTITLE=Charged Particles - Charged Particles
DYEAR=1900
DGENRE=Jazz
TTITLE0=Five For Chick
TTITLE1=Hitchhiking In Khartoum
TTITLE2=Swing
TTITLE3=8th Sky
TTITLE4=For Eddie's Ears
TTITLE5=Which Way's Wes
TTITLE6=Tales Of Uncommon Time
TTITLE7=Seven
EXTD=
EXTT0=
EXTT1=
EXTT2=
EXTT3=
EXTT4=
EXTT5=
EXTT6=
EXTT7=
PLAYORDER=
